HIERARCHY
ROOT hip
{
  OFFSET 0 0 0
  CHANNELS 6 Xposition Yposition Zposition Zrotation Yrotation Xrotation
  JOINT abdomen
  {
    OFFSET 0 20.6881 -0.73152
    CHANNELS 3 Zrotation Xrotation Yrotation
    JOINT chest
    {
      OFFSET 0 11.7043 -0.48768
      CHANNELS 3 Zrotation Xrotation Yrotation
      JOINT neck
      {
        OFFSET 0 22.1894 -2.19456
        CHANNELS 3 Zrotation Xrotation Yrotation
        JOINT head
        {
          OFFSET -0.24384 7.07133 1.2192
          CHANNELS 3 Zrotation Xrotation Yrotation
          JOINT leftEye
          {
            OFFSET 4.14528 8.04674 8.04672
            CHANNELS 3 Zrotation Xrotation Yrotation
            End Site
            {
              OFFSET 1 0 0
            }
          }
          JOINT rightEye
          {
            OFFSET -3.6576 8.04674 8.04672
            CHANNELS 3 Zrotation Xrotation Yrotation
            End Site
            {
              OFFSET 1 0 0
            }
          }
        }
      }
      JOINT rCollar
      {
        OFFSET -2.68224 19.2634 -4.8768
        CHANNELS 3 Zrotation Xrotation Yrotation
        JOINT rShldr
        {
          OFFSET -8.77824 -1.95073 1.46304
          CHANNELS 3 Zrotation Xrotation Yrotation
          JOINT rForeArm
          {
            OFFSET -28.1742 -1.7115 0.48768
            CHANNELS 3 Zrotation Xrotation Yrotation
            JOINT rHand
            {
              OFFSET -22.5879 0.773209 7.07136
              CHANNELS 3 Zrotation Xrotation Yrotation
              JOINT rThumb1
              {
                OFFSET -1.2192 -0.487915 3.41376
                CHANNELS 3 Zrotation Xrotation Yrotation
                JOINT rThumb2
                {
                  OFFSET -3.37035 -0.52449 3.41376
                  CHANNELS 3 Zrotation Xrotation Yrotation
                  End Site
                  {
                    OFFSET -1.78271 -1.18214 1.43049
                  }
                }
              }
              JOINT rIndex1
              {
                OFFSET -7.75947 0.938293 5.60832
                CHANNELS 3 Zrotation Xrotation Yrotation
                JOINT rIndex2
                {
                  OFFSET -2.54057 -0.884171 1.56538
                  CHANNELS 3 Zrotation Xrotation Yrotation
                  End Site
                  {
                    OFFSET -1.62519 -0.234802 1.16502
                  }
                }
              }
              JOINT rMid1
              {
                OFFSET -8.24714 1.18213 3.41376
                CHANNELS 3 Zrotation Xrotation Yrotation
                JOINT rMid2
                {
                  OFFSET -3.10165 -0.590103 1.0647
                  CHANNELS 3 Zrotation Xrotation Yrotation
                  End Site
                  {
                    OFFSET -2.48547 -0.328903 0.83742
                  }
                }
              }
              JOINT rRing1
              {
                OFFSET -8.82822 0.546677 1.51678
                CHANNELS 3 Zrotation Xrotation Yrotation
                JOINT rRing2
                {
                  OFFSET -2.60934 -0.819778 -0.0198488
                  CHANNELS 3 Zrotation Xrotation Yrotation
                  End Site
                  {
                    OFFSET -2.33842 -0.294052 0.168128
                  }
                }
              }
              JOINT rPinky1
              {
                OFFSET -8.27202 -0.0477905 -0.4584
                CHANNELS 3 Zrotation Xrotation Yrotation
                JOINT rPinky2
                {
                  OFFSET -1.82734 -0.647385 -0.700984
                  CHANNELS 3 Zrotation Xrotation Yrotation
                  End Site
                  {
                    OFFSET -1.69225 -0.51767 -0.607171
                  }
                }
              }
            }
          }
        }
      }
      JOINT lCollar
      {
        OFFSET 2.68224 19.2634 -4.8768
        CHANNELS 3 Zrotation Xrotation Yrotation
        JOINT lShldr
        {
          OFFSET 8.77824 -1.95073 1.46304
          CHANNELS 3 Zrotation Xrotation Yrotation
          JOINT lForeArm
          {
            OFFSET 28.1742 -1.7115 0.48768
            CHANNELS 3 Zrotation Xrotation Yrotation
            JOINT lHand
            {
              OFFSET 22.5879 0.773209 7.07136
              CHANNELS 3 Zrotation Xrotation Yrotation
              JOINT lThumb1
              {
                OFFSET 1.2192 -0.487915 3.41376
                CHANNELS 3 Zrotation Xrotation Yrotation
                JOINT lThumb2
                {
                  OFFSET 3.37035 -0.52449 3.41376
                  CHANNELS 3 Zrotation Xrotation Yrotation
                  End Site
                  {
                    OFFSET 1.78271 -1.18214 1.43049
                  }
                }
              }
              JOINT lIndex1
              {
                OFFSET 7.75947 0.938293 5.60832
                CHANNELS 3 Zrotation Xrotation Yrotation
                JOINT lIndex2
                {
                  OFFSET 2.54057 -0.884171 1.56538
                  CHANNELS 3 Zrotation Xrotation Yrotation
                  End Site
                  {
                    OFFSET 1.62519 -0.234802 1.16502
                  }
                }
              }
              JOINT lMid1
              {
                OFFSET 8.24714 1.18213 3.41376
                CHANNELS 3 Zrotation Xrotation Yrotation
                JOINT lMid2
                {
                  OFFSET 3.10165 -0.590103 1.0647
                  CHANNELS 3 Zrotation Xrotation Yrotation
                  End Site
                  {
                    OFFSET 2.48547 -0.328903 0.83742
                  }
                }
              }
              JOINT lRing1
              {
                OFFSET 8.82822 0.546677 1.51678
                CHANNELS 3 Zrotation Xrotation Yrotation
                JOINT lRing2
                {
                  OFFSET 2.60934 -0.819778 -0.0198488
                  CHANNELS 3 Zrotation Xrotation Yrotation
                  End Site
                  {
                    OFFSET 2.33842 -0.294052 0.168128
                  }
                }
              }
              JOINT lPinky1
              {
                OFFSET 8.27202 -0.0477905 -0.4584
                CHANNELS 3 Zrotation Xrotation Yrotation
                JOINT lPinky2
                {
                  OFFSET 1.82734 -0.647385 -0.700984
                  CHANNELS 3 Zrotation Xrotation Yrotation
                  End Site
                  {
                    OFFSET 1.69225 -0.51767 -0.607171
                  }
                }
              }
            }
          }
        }
      }
    }
  }
  JOINT rButtock
  {
    OFFSET -8.77824 4.35084 1.2192
    CHANNELS 3 Zrotation Xrotation Yrotation
    JOINT rThigh
    {
      OFFSET 0 -1.70687 -2.19456
      CHANNELS 3 Zrotation Xrotation Yrotation
      JOINT rShin
      {
        OFFSET 0 -36.8199 0.73152
        CHANNELS 3 Zrotation Xrotation Yrotation
        JOINT rFoot
        {
          OFFSET 0.73152 -45.1104 -5.12064
          CHANNELS 3 Zrotation Xrotation Yrotation
          End Site
          {
            OFFSET -1.1221 -3.69964 12.103
          }
        }
      }
    }
  }
  JOINT lButtock
  {
    OFFSET 8.77824 4.35084 1.2192
    CHANNELS 3 Zrotation Xrotation Yrotation
    JOINT lThigh
    {
      OFFSET 0 -1.70687 -2.19456
      CHANNELS 3 Zrotation Xrotation Yrotation
      JOINT lShin
      {
        OFFSET 0 -36.8199 0.73152
        CHANNELS 3 Zrotation Xrotation Yrotation
        JOINT lFoot
        {
          OFFSET -0.73152 -45.1104 -5.12064
          CHANNELS 3 Zrotation Xrotation Yrotation
          End Site
          {
            OFFSET 1.1221 -3.69964 12.103
          }
        }
      }
    }
  }
}
MOTION
Frames:	8
Frame Time:	0.03333
0.0 0.0 0.0 0.0 0.0 0.0 0.0 0.0 0.0 0.0 0.0 0.0 0.0 0.0 0.0 0.0 0.0 0.0 0.0 0.0 0.0 0.0 0.0 0.0 0.0 0.0 0.0 0.0 0.0 0.0 0.0 0.0 0.0 0.0 0.0 0.0 0.0 0.0 0.0 0.0 0.0 0.0 0.0 0.0 0.0 0.0 0.0 0.0 0.0 0.0 0.0 0.0 0.0 0.0 0.0 0.0 0.0 0.0 0.0 0.0 0.0 0.0 0.0 0.0 0.0 0.0 0.0 0.0 0.0 0.0 0.0 0.0 0.0 0.0 0.0 0.0 0.0 0.0 0.0 0.0 0.0 0.0 0.0 0.0 0.0 0.0 0.0 0.0 0.0 0.0 0.0 0.0 0.0 0.0 0.0 0.0 0.0 0.0 0.0 0.0 0.0 0.0 0.0 0.0 0.0 0.0 0.0 0.0 0.0 0.0 0.0 0.0 0.0 0.0 0.0 0.0 0.0 0.0 0.0 0.0 0.0 0.0 0.0 0.0 0.0 0.0 0.0 0.0 0.0 0.0 0.0 0.0
0.059000000000000004 68.7765 -0.4889 179.666545 4.297589 178.487923 -0.093486 4.39626 0.003282 1.186066 7.616024 -6.59548 -8.642844 -3.239978 -120.753091 15.823554 54.993809 158.568464 -164.818753 -12.782302 -80.096591 -65.734685 -10.186374 15.70796 48.632381 46.940951 26.911324 13.008358 -11.532697 9.905377 -170.60777 -0.192198 -15.424134 47.162893 -59.03432 32.284538 97.732981 -76.971672 52.679796 -61.136814 8.046133 27.918038 -166.366729 -13.992454 134.815331 24.632314 1.209091 -7.364759 -18.363948 -0.899148 -1.481024 170.47696 -64.926029 119.258353 -61.727381 -2.413175 -167.908225 -23.796512 11.865664 60.182773 162.206409 6.114247 2.371015 -11.989967 7.793779 -10.766698 -66.516244 20.726121 -9.466097 169.735667 -27.387908 -173.302567 173.057862 -60.540501 3.471955 -156.698693 -41.21645 -130.718085 169.981651 17.245492 -107.824725 -168.904075 81.394627 25.615283 60.125685 -60.121447 117.028927 -130.004297 69.388534 85.282174 57.242956 46.760179 -32.943514 151.25507 -5.29799 -152.676533 -60.558303 -34.928798 76.087674 169.857555 46.877692 168.653238 21.368102 40.487721 132.728382 -22.513097 46.85913 32.383812 3.094551 -48.393718 -0.0 -6.775289 49.75407 5.094483 6.920796 -2.635082 68.538317 67.286719 -14.063117 -96.513867 -2.062057 56.361707 -180.0 -3.496272 56.759504 -0.0 -5.517286 -2.507571 -105.097392 -76.743601 0.878036 87.86609
0.432 66.8099 -1.2574999999999998 -176.483014 -27.515959 -176.129062 1.522112 2.37456 -128.367603 10.633943 6.770715 132.554234 8.310706 22.119288 118.562029 -33.526561 17.55707 -111.254748 2.63028 -0.437318 -18.876455 -14.302974 0.238165 -1.89802 -164.430857 -31.995327 159.39365 90.464532 -72.546546 87.829049 -41.896622 11.588409 -50.18761 135.517913 -56.800623 115.475881 -14.447178 9.088053 -6.947253 -30.861077 24.496614 35.010674 -21.542777 3.943724 -12.741118 75.618575 -51.497073 26.126094 -176.948375 -6.209456 134.687033 0.446907 -23.090377 28.676508 -82.168308 -76.371009 -92.086242 17.020973 -62.319142 -14.117991 -148.933792 27.702807 -149.363916 -9.777553 -44.292814 -28.556289 -1.440842 -26.429461 10.141867 173.689322 -10.522347 -167.291141 -8.238065 9.046024 68.532851 -173.912842 -12.9461 -144.319777 8.967065 13.33619 -5.908628 22.476226 26.664966 -6.81828 136.133258 2.226713 -117.790548 -21.491476 3.777754 7.12889 138.700278 -58.115405 160.826146 -19.632928 -26.556027 33.462932 43.963056 61.725118 -62.792175 -82.339276 86.057924 68.073703 124.741954 -0.886946 157.36369 -2.264468 -48.288859 18.279672 153.194855 74.021998 23.410536 165.748615 31.052432 120.077394 87.604623 -32.573883 119.079678 34.956391 20.296346 135.696847 94.298329 59.902351 43.041661 -108.70242 2.546054 -0.0 48.012405 60.785132 -68.511303 -179.367249 -11.5958 -24.609438
0.1035 64.1784 -1.0768 -172.866127 -27.787188 -179.858924 6.27754 8.471653 -36.748787 5.226381 -15.663828 39.41601 -8.315626 13.920855 -68.260999 30.663913 5.741002 69.251032 -4.529517 -0.168417 4.25658 3.656946 0.702554 21.742809 -148.534425 19.898728 150.999178 13.711728 1.606895 16.155445 146.450858 5.37784 -153.335688 -35.723052 59.120931 17.344163 -123.216086 32.797555 73.39676 12.773079 -31.50855 20.657799 -142.878064 -19.626799 121.262668 -38.268403 67.232418 47.887093 90.97425 -76.620873 63.884785 -173.050227 0.028204 151.889801 46.827128 -84.938362 19.231415 41.012426 -76.592202 41.286249 14.793611 6.521344 16.351447 -150.497628 -28.718188 -119.423918 150.207221 -45.926677 179.970932 77.760748 67.936168 -98.231431 -20.042893 24.361553 -25.023886 7.52823 35.48556 0.812152 172.627083 -5.808647 -100.038993 139.3176 19.203131 -72.830474 -71.829071 -78.800503 -40.678057 13.991527 75.50443 -8.652609 165.607924 21.793828 -144.6336 -175.917884 -40.092355 -139.841582 1.201793 -0.70181 4.172106 -52.656381 -61.658164 -43.540354 165.614484 20.817672 137.498924 27.754879 -29.601739 35.949315 58.55826 40.728189 51.854411 -108.920567 17.510938 -180.0 -78.007102 -31.44856 -1.871122 97.691753 63.657152 2.825835 11.350552 -0.294661 -0.0 30.092416 -32.647403 -53.188491 -81.967226 -10.988516 -7.814235 22.648046 11.402273 90.759619
0.5414 62.8216 -0.5941 -174.899163 -27.332748 -178.98633 -1.713798 8.804494 -17.638524 7.119533 -14.102497 23.478516 10.357098 15.026163 143.15993 -11.717278 21.400273 -142.735763 -2.002822 0.042407 -2.425722 -16.158196 -2.842787 19.830586 -154.913694 -4.449083 161.071726 -4.737766 43.114526 32.119164 -58.592583 -47.492373 -118.249077 165.484465 -49.593485 141.534869 -170.196966 -15.513286 98.395006 -17.681509 -58.815421 -27.892148 24.076644 2.495432 4.79466 163.070963 -77.274977 148.095025 21.188063 -42.555842 5.150956 -5.756977 31.376012 -5.206738 -143.107008 4.015779 -175.787028 -145.238698 -75.931311 -164.461467 4.907777 39.034394 38.941738 -104.22913 -3.809761 -116.404565 161.262689 -48.702261 -167.727223 140.736611 35.131512 -145.188077 87.865441 37.52098 -69.459936 -56.936792 -61.769815 -41.65837 166.628223 5.872812 -94.733685 -115.141931 -63.968958 -88.509354 51.247794 50.109692 -28.101363 5.801865 -9.179197 -9.514229 172.229356 -47.201154 -152.892296 3.142533 32.747669 -9.866152 -7.737318 0.244677 2.446153 158.163629 46.667605 -157.62136 -77.425146 82.145078 38.384214 -162.504562 75.814775 127.747395 34.42996 16.437264 37.921077 -84.383952 -5.695414 63.887164 88.664754 -35.002605 176.297472 68.094023 55.886854 37.225457 7.599603 0.018253 3.783758 27.740175 -36.384236 17.786253 -59.116577 68.708416 64.135518 -57.75205 -26.423686 -2.067648
1.1556 62.1858 -0.1442 -176.65447 -24.138363 -175.915287 -9.976902 -0.53236 90.442689 -10.553345 -7.590457 -85.789888 -6.139167 10.379781 -91.427155 10.988005 11.282419 85.114534 15.823451 -0.066449 -0.478153 -10.962978 -0.131567 1.370953 0.86236 11.049234 0.419247 -1.688524 -21.789415 -0.73667 -0.443171 29.183426 47.132905 -9.030052 -8.174129 -0.602963 -113.2278 36.291235 77.134592 -136.144584 -9.519195 74.858915 61.935892 -42.200258 -5.778158 135.766435 3.587002 86.814377 40.918561 -65.17088 11.52908 141.389552 -56.543431 114.055431 1.537805 24.922308 -1.917976 31.742334 -60.247707 11.992844 -13.136534 45.261965 20.53452 41.176684 -45.077643 1.98594 14.760058 33.468469 -15.282247 -91.603495 84.857729 82.720884 -77.693541 60.649642 139.999866 -177.775075 17.213052 -139.753437 -87.326131 -51.589342 -41.31712 151.324595 -22.766518 -141.423023 46.038154 43.989057 -30.625683 -82.347332 -61.042314 -50.369571 3.278746 16.327295 -0.852004 -176.162296 -48.366162 -133.815332 41.801916 62.238725 -62.273038 137.344113 -67.469325 150.15844 29.152124 -38.520425 25.407557 2.54014 -36.416362 10.437385 26.34172 6.370457 26.38688 -71.431902 -17.166785 -43.737161 88.955681 78.535657 172.892429 33.693109 7.564412 85.173265 158.342283 67.86643 12.876483 -130.007775 19.053526 -20.058339 -75.221522 73.466472 162.109521 -165.281996 19.321994 56.765377
2.1715999999999998 61.9952 -0.3014 -175.493353 -23.595827 -177.913651 -1.511796 4.484413 0.055418 -0.048467 -13.958965 1.597563 12.366036 8.96089 82.930297 -8.87897 6.455368 -89.014647 18.245345 1.328488 8.259102 -13.781293 1.194598 -9.861104 -146.536644 19.096365 150.184183 40.032847 -59.864217 15.795675 -169.4039 78.825022 93.726639 -176.26425 -4.410322 142.50731 -72.534267 38.188045 47.070721 29.449434 -14.953244 18.168041 18.294648 17.018336 11.457852 -20.4864 -37.086039 -19.199437 40.403542 -49.502121 22.039454 177.444402 -5.30778 147.362623 7.285878 25.55817 -1.989483 -141.271763 41.67513 139.885441 -19.882912 0.162741 1.707698 34.98968 21.322755 -1.574261 6.795265 26.608563 -4.842069 -1.257704 0.144165 8.428271 107.100374 41.586371 -69.818459 -123.221534 -63.029794 -101.105328 173.557181 -4.423057 -94.347484 114.909122 18.495411 -30.315715 -13.342596 -62.566485 22.266345 -41.80371 3.783796 -3.776394 -4.181762 -17.365088 6.886004 -145.157443 -74.363066 -92.875032 142.686694 1.729327 -175.680954 17.413751 -71.413252 49.528302 163.123685 12.379434 121.240793 -30.747999 30.019832 39.075583 -0.923118 4.326185 12.057222 -44.22088 -31.059697 -0.0 83.5199 23.18714 -29.43453 -64.865857 38.749551 -29.057446 161.657856 65.05869 20.084104 -131.512806 28.262798 -0.0 -56.222657 67.51767 -12.252796 53.743807 50.739097 40.036143
2.9656 60.7013 -0.9239 -175.130418 -26.671621 -178.116183 -1.112538 1.558231 -0.016088 0.328664 -10.275779 -3.312731 -4.822777 5.009383 -6.823869 8.987632 -2.196935 2.277633 16.2544 2.745922 19.054514 -8.336261 0.207023 -2.840168 -0.392446 -0.148916 9.981078 1.710665 59.014019 -0.811556 -111.1241 53.194047 47.875676 167.846924 -42.135575 136.586346 -97.061227 32.958207 63.210259 -111.968034 -21.609686 74.583074 44.191348 -35.555237 -1.637793 106.323158 -39.817837 63.391716 -173.052124 -23.489898 123.091447 -176.804612 -6.641188 116.934261 -52.01075 75.314492 80.053944 -6.617928 31.319953 -13.826768 -154.559867 -13.059262 -134.510335 -160.675778 16.252488 -134.405436 154.417684 -2.708948 -168.901762 139.615262 24.235228 -158.757606 -100.825267 -41.198766 -50.262666 168.030389 46.08665 -134.697642 176.876915 -16.67485 -96.250766 26.514158 -63.007683 15.517798 144.696331 27.578315 -111.885071 168.180472 34.944698 -112.947821 125.141771 50.507017 -116.71267 -2.719317 -28.583587 -3.74687 62.812112 71.633978 -88.097416 132.421244 -53.465232 142.820306 -64.168003 58.024838 41.435139 28.132139 73.088329 -11.23993 -0.876952 3.515981 14.014398 -45.831879 -27.996504 -180.0 -90.479162 -28.899922 -1.885387 173.544344 -31.628181 -92.454552 7.669345 1.049588 -10.109812 36.66014 -21.736835 63.546134 42.203326 82.995801 106.053325 108.854456 53.177861 149.04455
